# xmcd CD database file generated by Grip 3.3.1
# 
# Track frame offsets:
#       150
#       39924
#       116345
#       224026
# 
# Disc length: 4384 seconds
# 
# Revision: 1
# Processed by: cddbd v1.5.2PL0 Copyright (c) Steve Scherf et al.
# Submitted via: Grip 3.3.1
# 
DISCID=32111e04
DTITLE=Steve Roach - Dynamic Stillness - Disc 2
DYEAR=2009
DGENRE=Ambient
TTITLE0=Nature Of Things
TTITLE1=Further Inside
TTITLE2=Slowly Revealed
TTITLE3=Canyon Stillness
EXTD=YEAR: 2009
EXTT0=
EXTT1=
EXTT2=
EXTT3=
PLAYORDER=
